<svg version="1.1" xmlns="http://www.w3.org/2000/svg" viewBox="0 0 58.576905168593385 58.58012808824148" width="58.576905168593385" height="58.58012808824148">
  <!-- svg-source:excalidraw -->
  
  <defs>
    <style class="style-fonts">
      @font-face {
        font-family: "Virgil";
        src: url("https://excalidraw.com/Virgil.woff2");
      }
      @font-face {
        font-family: "Cascadia";
        src: url("https://excalidraw.com/Cascadia.woff2");
      }
    </style>
  </defs>
  <g stroke-linecap="round" transform="translate(22.033315530036816 22.001086333556373) rotate(0 7.283882625227079 7.283882625227047)"><path d="M14.57 7.28 C14.57 7.71, 14.53 8.13, 14.46 8.55 C14.38 8.96, 14.27 9.38, 14.13 9.78 C13.98 10.17, 13.8 10.56, 13.59 10.93 C13.38 11.29, 13.13 11.64, 12.86 11.97 C12.59 12.29, 12.29 12.59, 11.97 12.86 C11.64 13.13, 11.29 13.38, 10.93 13.59 C10.56 13.8, 10.17 13.98, 9.78 14.13 C9.38 14.27, 8.96 14.38, 8.55 14.46 C8.13 14.53, 7.71 14.57, 7.28 14.57 C6.86 14.57, 6.43 14.53, 6.02 14.46 C5.6 14.38, 5.19 14.27, 4.79 14.13 C4.4 13.98, 4.01 13.8, 3.64 13.59 C3.28 13.38, 2.92 13.13, 2.6 12.86 C2.28 12.59, 1.98 12.29, 1.7 11.97 C1.43 11.64, 1.19 11.29, 0.98 10.93 C0.77 10.56, 0.58 10.17, 0.44 9.78 C0.3 9.38, 0.18 8.96, 0.11 8.55 C0.04 8.13, 0 7.71, 0 7.28 C0 6.86, 0.04 6.43, 0.11 6.02 C0.18 5.6, 0.3 5.19, 0.44 4.79 C0.58 4.4, 0.77 4.01, 0.98 3.64 C1.19 3.28, 1.43 2.92, 1.7 2.6 C1.98 2.28, 2.28 1.98, 2.6 1.7 C2.92 1.43, 3.28 1.19, 3.64 0.98 C4.01 0.77, 4.4 0.58, 4.79 0.44 C5.19 0.3, 5.6 0.18, 6.02 0.11 C6.43 0.04, 6.86 0, 7.28 0 C7.71 0, 8.13 0.04, 8.55 0.11 C8.96 0.18, 9.38 0.3, 9.78 0.44 C10.17 0.58, 10.56 0.77, 10.93 0.98 C11.29 1.19, 11.64 1.43, 11.97 1.7 C12.29 1.98, 12.59 2.28, 12.86 2.6 C13.13 2.92, 13.38 3.28, 13.59 3.64 C13.8 4.01, 13.98 4.4, 14.13 4.79 C14.27 5.19, 14.38 5.6, 14.46 6.02 C14.53 6.43, 14.55 7.07, 14.57 7.28 C14.59 7.49, 14.59 7.07, 14.57 7.28" stroke="none" stroke-width="0" fill="#4285f4"></path><path d="M14.57 7.28 C14.57 7.71, 14.53 8.13, 14.46 8.55 C14.38 8.96, 14.27 9.38, 14.13 9.78 C13.98 10.17, 13.8 10.56, 13.59 10.93 C13.38 11.29, 13.13 11.64, 12.86 11.97 C12.59 12.29, 12.29 12.59, 11.97 12.86 C11.64 13.13, 11.29 13.38, 10.93 13.59 C10.56 13.8, 10.17 13.98, 9.78 14.13 C9.38 14.27, 8.96 14.38, 8.55 14.46 C8.13 14.53, 7.71 14.57, 7.28 14.57 C6.86 14.57, 6.43 14.53, 6.02 14.46 C5.6 14.38, 5.19 14.27, 4.79 14.13 C4.4 13.98, 4.01 13.8, 3.64 13.59 C3.28 13.38, 2.92 13.13, 2.6 12.86 C2.28 12.59, 1.98 12.29, 1.7 11.97 C1.43 11.64, 1.19 11.29, 0.98 10.93 C0.77 10.56, 0.58 10.17, 0.44 9.78 C0.3 9.38, 0.18 8.96, 0.11 8.55 C0.04 8.13, 0 7.71, 0 7.28 C0 6.86, 0.04 6.43, 0.11 6.02 C0.18 5.6, 0.3 5.19, 0.44 4.79 C0.58 4.4, 0.77 4.01, 0.98 3.64 C1.19 3.28, 1.43 2.92, 1.7 2.6 C1.98 2.28, 2.28 1.98, 2.6 1.7 C2.92 1.43, 3.28 1.19, 3.64 0.98 C4.01 0.77, 4.4 0.58, 4.79 0.44 C5.19 0.3, 5.6 0.18, 6.02 0.11 C6.43 0.04, 6.86 0, 7.28 0 C7.71 0, 8.13 0.04, 8.55 0.11 C8.96 0.18, 9.38 0.3, 9.78 0.44 C10.17 0.58, 10.56 0.77, 10.93 0.98 C11.29 1.19, 11.64 1.43, 11.97 1.7 C12.29 1.98, 12.59 2.28, 12.86 2.6 C13.13 2.92, 13.38 3.28, 13.59 3.64 C13.8 4.01, 13.98 4.4, 14.13 4.79 C14.27 5.19, 14.38 5.6, 14.46 6.02 C14.53 6.43, 14.55 7.07, 14.57 7.28 C14.59 7.49, 14.59 7.07, 14.57 7.28" stroke="#000000" stroke-width="1" fill="none"></path></g><g stroke-opacity="0.3" fill-opacity="0.3" stroke-linecap="round" transform="translate(10 10) rotate(0 19.288452584296692 19.29006404412074)"><path d="M38.58 19.29 C38.58 20.41, 38.48 21.54, 38.28 22.64 C38.09 23.74, 37.8 24.84, 37.41 25.89 C37.03 26.94, 36.55 27.97, 35.99 28.94 C35.43 29.9, 34.78 30.83, 34.06 31.69 C33.35 32.54, 32.54 33.35, 31.69 34.07 C30.83 34.78, 29.9 35.44, 28.93 36 C27.97 36.55, 26.93 37.03, 25.89 37.42 C24.84 37.8, 23.74 38.09, 22.64 38.29 C21.54 38.48, 20.4 38.58, 19.29 38.58 C18.17 38.58, 17.04 38.48, 15.94 38.29 C14.84 38.09, 13.74 37.8, 12.69 37.42 C11.64 37.03, 10.61 36.55, 9.64 36 C8.68 35.44, 7.75 34.78, 6.89 34.07 C6.03 33.35, 5.23 32.54, 4.51 31.69 C3.79 30.83, 3.14 29.9, 2.58 28.94 C2.03 27.97, 1.55 26.94, 1.16 25.89 C0.78 24.84, 0.49 23.74, 0.29 22.64 C0.1 21.54, 0 20.41, 0 19.29 C0 18.17, 0.1 17.04, 0.29 15.94 C0.49 14.84, 0.78 13.74, 1.16 12.69 C1.55 11.64, 2.03 10.61, 2.58 9.65 C3.14 8.68, 3.79 7.75, 4.51 6.89 C5.23 6.04, 6.03 5.23, 6.89 4.51 C7.75 3.8, 8.68 3.14, 9.64 2.58 C10.61 2.03, 11.64 1.55, 12.69 1.16 C13.74 0.78, 14.84 0.49, 15.94 0.29 C17.04 0.1, 18.17 0, 19.29 0 C20.4 0, 21.54 0.1, 22.64 0.29 C23.74 0.49, 24.84 0.78, 25.89 1.16 C26.93 1.55, 27.97 2.03, 28.93 2.58 C29.9 3.14, 30.83 3.8, 31.69 4.51 C32.54 5.23, 33.35 6.04, 34.06 6.89 C34.78 7.75, 35.43 8.68, 35.99 9.65 C36.55 10.61, 37.03 11.64, 37.41 12.69 C37.8 13.74, 38.09 14.84, 38.28 15.94 C38.48 17.04, 38.53 18.73, 38.58 19.29 C38.63 19.85, 38.63 18.73, 38.58 19.29" stroke="none" stroke-width="0" fill="#4285f4"></path><path d="M38.58 19.29 C38.58 20.41, 38.48 21.54, 38.28 22.64 C38.09 23.74, 37.8 24.84, 37.41 25.89 C37.03 26.94, 36.55 27.97, 35.99 28.94 C35.43 29.9, 34.78 30.83, 34.06 31.69 C33.35 32.54, 32.54 33.35, 31.69 34.07 C30.83 34.78, 29.9 35.44, 28.93 36 C27.97 36.55, 26.93 37.03, 25.89 37.42 C24.84 37.8, 23.74 38.09, 22.64 38.29 C21.54 38.48, 20.4 38.58, 19.29 38.58 C18.17 38.58, 17.04 38.48, 15.94 38.29 C14.84 38.09, 13.74 37.8, 12.69 37.42 C11.64 37.03, 10.61 36.55, 9.64 36 C8.68 35.44, 7.75 34.78, 6.89 34.07 C6.03 33.35, 5.23 32.54, 4.51 31.69 C3.79 30.83, 3.14 29.9, 2.58 28.94 C2.03 27.97, 1.55 26.94, 1.16 25.89 C0.78 24.84, 0.49 23.74, 0.29 22.64 C0.1 21.54, 0 20.41, 0 19.29 C0 18.17, 0.1 17.04, 0.29 15.94 C0.49 14.84, 0.78 13.74, 1.16 12.69 C1.55 11.64, 2.03 10.61, 2.58 9.65 C3.14 8.68, 3.79 7.75, 4.51 6.89 C5.23 6.04, 6.03 5.23, 6.89 4.51 C7.75 3.8, 8.68 3.14, 9.64 2.58 C10.61 2.03, 11.64 1.55, 12.69 1.16 C13.74 0.78, 14.84 0.49, 15.94 0.29 C17.04 0.1, 18.17 0, 19.29 0 C20.4 0, 21.54 0.1, 22.64 0.29 C23.74 0.49, 24.84 0.78, 25.89 1.16 C26.93 1.55, 27.97 2.03, 28.93 2.58 C29.9 3.14, 30.83 3.8, 31.69 4.51 C32.54 5.23, 33.35 6.04, 34.06 6.89 C34.78 7.75, 35.43 8.68, 35.99 9.65 C36.55 10.61, 37.03 11.64, 37.41 12.69 C37.8 13.74, 38.09 14.84, 38.28 15.94 C38.48 17.04, 38.53 18.73, 38.58 19.29 C38.63 19.85, 38.63 18.73, 38.58 19.29" stroke="#000000" stroke-width="1" fill="none"></path></g></svg>